<svg version="1.1" id="Layer_1" xmlns="http://www.w3.org/2000/svg" xmlns:xlink="http://www.w3.org/1999/xlink" x="0px" y="0px"
	 viewBox="0 0 510.959 510.959" style="enable-background:new 0 0 510.959 510.959;" xml:space="preserve">
<g>
	<g>
		<g>
			<path d="M507.14,69.424C507.14,23.847,380.537,0,255.479,0S3.818,23.847,3.818,69.424V381.83
				c0,45.577,126.603,69.424,251.661,69.424c8.574,0,17.321-0.243,26.034-0.477v48.267c0,3.758,1.727,7.229,4.729,9.494
				c2.1,1.597,4.599,2.421,7.151,2.421c1.093,0,2.195-0.156,3.289-0.46l27.101-7.706c59.887-17.026,116.033-48.007,162.373-89.583
				l14.293-12.817c4.252-3.818,6.691-9.285,6.691-15.004V73.129c0-0.512-0.148-0.981-0.217-1.467
				C507.002,70.916,507.14,70.17,507.14,69.424z M133.988,399.186c0,4.799-3.888,8.678-8.678,8.678c-4.79,0-8.678-3.879-8.678-8.678
				V381.83c0-4.799,3.888-8.678,8.678-8.678c4.79,0,8.678,3.879,8.678,8.678V399.186z M133.988,347.119
				c0,4.799-3.888,8.678-8.678,8.678c-4.79,0-8.678-3.879-8.678-8.678v-17.356c0-4.799,3.888-8.678,8.678-8.678
				c4.79,0,8.678,3.879,8.678,8.678V347.119z M133.988,295.051c0,4.799-3.888,8.678-8.678,8.678c-4.79,0-8.678-3.879-8.678-8.678
				v-17.356c0-4.799,3.888-8.678,8.678-8.678c4.79,0,8.678,3.879,8.678,8.678V295.051z M133.988,242.983
				c0,4.799-3.888,8.678-8.678,8.678c-4.79,0-8.678-3.879-8.678-8.678v-17.356c0-4.799,3.888-8.678,8.678-8.678
				c4.79,0,8.678,3.879,8.678,8.678V242.983z M133.988,190.915c0,4.799-3.888,8.678-8.678,8.678c-4.79,0-8.678-3.879-8.678-8.678
				v-17.356c0-4.799,3.888-8.678,8.678-8.678c4.79,0,8.678,3.879,8.678,8.678V190.915z M133.988,138.847
				c0,4.799-3.888,8.678-8.678,8.678c-4.79,0-8.678-3.879-8.678-8.678v-10.683c5.658,0.963,11.446,1.866,17.356,2.699V138.847z
				 M255.479,121.492c-145.174,0-234.305-30.321-234.305-52.068c0-21.747,89.131-52.068,234.305-52.068
				c138.474,0,225.966,27.587,233.732,49.013c-5.788,5.762-11.785,11.273-17.885,16.644c-2.005,1.77-4.053,3.489-6.092,5.215
				c-2.057,1.736-4.2,3.367-6.283,5.059c-0.833,0.338-1.736,0.651-2.595,0.981c-1.796,0.703-3.575,1.397-5.493,2.074
				c-0.668,0.234-1.406,0.46-2.083,0.694C404.28,112.215,331.88,121.492,255.479,121.492z M489.784,385.388
				c0,0.798-0.339,1.553-0.929,2.083l-14.293,12.826c-44.388,39.823-98.165,69.502-155.526,85.799l-20.168,5.736v-41.515V189.249
				c8.227-1.796,16.393-3.905,24.498-6.213c3.714-1.059,7.359-2.291,11.038-3.445c4.2-1.328,8.409-2.629,12.574-4.096
				c4.565-1.597,9.051-3.341,13.546-5.094c3.133-1.224,6.266-2.447,9.364-3.749c4.86-2.031,9.667-4.174,14.44-6.396
				c2.664-1.241,5.311-2.517,7.958-3.81c3.575-1.762,7.194-3.445,10.717-5.302v5.059c0,4.799,3.888,8.678,8.678,8.678
				s8.678-3.879,8.678-8.678v-14.839c2.647-1.562,5.276-3.141,7.88-4.764c2.855-1.779,5.623-3.68,8.426-5.519
				c4.105-2.69,8.253-5.328,12.262-8.175c6.543-4.625,12.948-9.433,19.204-14.44l0.122-0.113c0.607-0.486,1.215-0.972,1.814-1.467
				c5.858-4.747,11.559-9.728,17.174-14.805c0.824-0.755,1.718-1.432,2.543-2.195V385.388z"/>
			<path d="M368.371,55.52c-17.495-4.53-55.513-12.132-113.603-12.132c-60.312,0-98.929,8.105-116.571,12.922
				c-5.996,1.64-10.014,6.899-10.014,13.112c0,6.213,4.018,11.472,10.006,13.112c17.651,4.816,56.268,12.922,116.58,12.922
				c13.85,0,27.665-0.451,41.073-1.336c24.515-1.649,55.756-8.366,72.201-12.227c6.101-1.441,10.414-6.83,10.474-13.104
				C378.585,62.428,374.498,57.099,368.371,55.52z M294.686,76.798c-13.017,0.859-26.451,1.302-39.919,1.302
				c-44.527,0-76.574-4.504-96.725-8.678c20.142-4.174,52.198-8.678,96.725-8.678c41.993,0,72.93,4.053,92.846,7.906
				C331.62,72.017,311.374,75.679,294.686,76.798z"/>
			<path d="M411.683,182.236c-4.79,0-8.678,3.879-8.678,8.678v17.356c0,4.799,3.888,8.678,8.678,8.678s8.678-3.879,8.678-8.678
				v-17.356C420.361,186.115,416.473,182.236,411.683,182.236z"/>
			<path d="M411.683,338.439c-4.79,0-8.678,3.879-8.678,8.678v17.356c0,4.799,3.888,8.678,8.678,8.678s8.678-3.879,8.678-8.678
				v-17.356C420.361,342.318,416.473,338.439,411.683,338.439z"/>
			<path d="M411.683,286.371c-4.79,0-8.678,3.879-8.678,8.678v17.356c0,4.799,3.888,8.678,8.678,8.678s8.678-3.879,8.678-8.678
				v-17.356C420.361,290.25,416.473,286.371,411.683,286.371z"/>
			<path d="M411.683,390.507c-4.79,0-8.678,3.879-8.678,8.678v17.356c0,4.799,3.888,8.678,8.678,8.678s8.678-3.879,8.678-8.678
				v-17.356C420.361,394.386,416.473,390.507,411.683,390.507z"/>
			<path d="M411.683,234.303c-4.79,0-8.678,3.879-8.678,8.678v17.356c0,4.799,3.888,8.678,8.678,8.678s8.678-3.879,8.678-8.678
				v-17.356C420.361,238.182,416.473,234.303,411.683,234.303z"/>
		</g>
	</g>
</g>
<g>
</g>
<g>
</g>
<g>
</g>
<g>
</g>
<g>
</g>
<g>
</g>
<g>
</g>
<g>
</g>
<g>
</g>
<g>
</g>
<g>
</g>
<g>
</g>
<g>
</g>
<g>
</g>
<g>
</g>
</svg>
