<?xml version="1.0" encoding="iso-8859-1"?>
<!-- Generator: Adobe Illustrator 19.0.0, SVG Export Plug-In . SVG Version: 6.00 Build 0)  -->
<svg version="1.1" id="Layer_1" xmlns="http://www.w3.org/2000/svg" xmlns:xlink="http://www.w3.org/1999/xlink" x="0px" y="0px"
	 viewBox="0 0 512.003 512.003" style="enable-background:new 0 0 512.003 512.003;" xml:space="preserve">
<g>
	<g>
		<g>
			<path d="M166.339,278.509c-1.546,0.023-2.958,0.88-3.692,2.241c-6.572,13.361-15.211,25.6-25.6,36.267
				c-1.65,1.616-1.677,4.263-0.061,5.913c0.801,0.818,1.903,1.272,3.048,1.255h26.368c2.356,0,4.267-1.91,4.267-4.267v-37.205
				C170.633,280.356,168.695,278.474,166.339,278.509z"/>
			<path d="M392.535,0.003H140.289c-2.308-0.085-4.247,1.718-4.332,4.025c-0.045,1.221,0.447,2.4,1.345,3.228
				c30.379,30.72,50.432,87.893,50.432,154.88v345.6c0,2.356,1.91,4.267,4.267,4.267h315.733c2.356,0,4.267-1.91,4.267-4.267v-345.6
				C512.001,74.243,438.785,0.003,392.535,0.003z M256.001,307.203h-17.067c-4.713,0-8.533-3.82-8.533-8.533s3.82-8.533,8.533-8.533
				h17.067c4.713,0,8.533,3.82,8.533,8.533S260.714,307.203,256.001,307.203z M324.268,307.203h-17.067
				c-4.713,0-8.533-3.82-8.533-8.533s3.82-8.533,8.533-8.533h17.067c4.713,0,8.533,3.82,8.533,8.533
				S328.981,307.203,324.268,307.203z M392.535,307.203h-17.067c-4.713,0-8.533-3.82-8.533-8.533s3.82-8.533,8.533-8.533h17.067
				c4.713,0,8.533,3.82,8.533,8.533S397.248,307.203,392.535,307.203z M460.801,307.203h-17.067c-4.713,0-8.533-3.82-8.533-8.533
				s3.82-8.533,8.533-8.533h17.067c4.713,0,8.533,3.82,8.533,8.533S465.514,307.203,460.801,307.203z"/>
			<path d="M85.335,0.003c-46.251,0-85.333,74.24-85.333,162.133S39.084,324.27,85.335,324.27s85.333-74.24,85.333-162.133
				S131.585,0.003,85.335,0.003z M85.335,221.87c-20.565,0-36.693-26.197-36.693-59.733s16.128-59.733,36.693-59.733
				c20.565,0,36.693,26.197,36.693,59.733S105.9,221.87,85.335,221.87z"/>
		</g>
	</g>
</g>
<g>
</g>
<g>
</g>
<g>
</g>
<g>
</g>
<g>
</g>
<g>
</g>
<g>
</g>
<g>
</g>
<g>
</g>
<g>
</g>
<g>
</g>
<g>
</g>
<g>
</g>
<g>
</g>
<g>
</g>
</svg>
